<svg width="412" height="412" viewBox="0 0 412 412" fill="none" xmlns="http://www.w3.org/2000/svg">
<path d="M7.04662 139.345V31.6761C7.04662 18.097 18.0951 7.04884 31.678 7.04884H139.351C141.628 7.04884 143.471 8.89292 143.471 11.1688C143.471 13.4448 141.628 15.2888 139.351 15.2888L31.678 15.2875C22.6415 15.2875 15.2866 22.6383 15.2866 31.6748V139.348C15.2866 141.624 13.4439 143.468 11.1666 143.468C8.88936 143.469 7.04662 141.624 7.04662 139.348V139.345ZM380.319 7.04541H272.646C270.369 7.04541 268.526 8.88949 268.526 11.1654C268.526 13.4413 270.369 15.2854 272.646 15.2854H380.319C389.355 15.2854 396.71 22.6362 396.71 31.6727V139.345C396.71 141.621 398.553 143.465 400.83 143.465C403.107 143.465 404.95 141.621 404.95 139.345V31.6761C404.95 18.0956 393.902 7.04747 380.319 7.04747V7.04541ZM143.463 400.849C143.463 398.573 141.621 396.729 139.343 396.729H31.6705C22.6339 396.729 15.2791 389.378 15.2791 380.341V272.669C15.2791 270.393 13.4363 268.549 11.1591 268.549C8.8818 268.549 7.03906 270.393 7.03906 272.669V380.341C7.03906 393.921 18.0875 404.969 31.6705 404.969H139.343C141.621 404.969 143.463 403.123 143.463 400.849ZM400.829 268.549C398.552 268.549 396.709 270.393 396.709 272.669V380.341C396.709 389.378 389.354 396.729 380.318 396.729H272.645C270.368 396.729 268.525 398.573 268.525 400.849C268.525 403.125 270.368 404.969 272.645 404.969H380.318C393.901 404.969 404.949 393.92 404.949 380.341V272.669C404.949 270.393 403.107 268.549 400.829 268.549ZM307.539 328.639C301.58 322.68 301.58 312.986 307.539 307.029C313.316 301.253 323.383 301.262 329.149 307.029C332.037 309.914 333.627 313.751 333.627 317.835C333.627 321.917 332.037 325.756 329.149 328.641C326.264 331.528 322.425 333.117 318.341 333.117C314.262 333.116 310.424 331.527 307.539 328.639L307.539 328.639ZM313.365 322.813C316.032 325.475 320.663 325.47 323.323 322.813C324.655 321.481 325.387 319.713 325.387 317.833C325.387 315.952 324.655 314.187 323.323 312.856C321.991 311.524 320.225 310.792 318.342 310.792C316.463 310.792 314.697 311.524 313.365 312.855C310.621 315.599 310.621 320.068 313.365 322.813ZM183.705 77.999C208.244 98.2169 217.329 131.226 206.779 160.89L218.057 172.172C218.262 172.377 218.366 172.632 218.519 172.865L285.266 106.118L286.018 97.3423C286.131 96.0387 286.855 94.8638 287.97 94.1825L318.085 75.739C319.711 74.7452 321.799 74.9866 323.151 76.3385L335.153 88.3404C336.48 89.6681 336.742 91.7241 335.792 93.3414L317.816 123.928C317.104 125.139 315.824 125.903 314.42 125.958L305.295 126.304L238.743 192.856L261.567 215.68C261.567 215.68 261.568 215.68 261.568 215.681C261.568 215.681 261.568 215.682 261.57 215.682L271.597 225.71C271.597 225.71 271.599 225.711 271.6 225.711C271.6 225.711 271.601 225.713 271.601 225.714L281.628 235.74C281.629 235.742 281.629 235.742 281.631 235.742C281.632 235.743 281.632 235.743 281.632 235.744L341.956 296.072C354.468 308.583 354.468 328.943 341.956 341.46C335.699 347.717 327.483 350.844 319.263 350.844C311.043 350.844 302.828 347.717 296.571 341.46L236.247 281.137C236.245 281.134 236.241 281.133 236.238 281.13C236.235 281.127 236.234 281.123 236.231 281.12L200.981 245.87C196.469 250.63 192.427 255.838 189.003 261.402L165.784 299.159C154.55 317.426 138.183 331.537 118.452 339.964L97.9606 348.711C94.5366 350.171 90.9435 350.883 87.3952 350.883C80.4427 350.883 73.635 348.162 68.485 343.009C60.6996 335.225 58.4628 323.655 62.784 313.534L71.5311 293.042C79.9562 273.311 94.0665 256.944 112.336 245.71L150.093 222.491C155.701 219.041 160.951 214.964 165.744 210.404C165.512 210.252 165.257 210.15 165.052 209.946L159.511 204.405C151.392 196.282 140.223 197.254 127.308 198.374C112.582 199.657 95.9048 201.101 82.3552 187.547C81.5827 186.775 81.1481 185.727 81.1481 184.634C81.1481 183.543 81.5827 182.391 82.3552 181.618L86.2338 177.74C65.5816 151.987 61.3181 117.395 76.0828 92.7783C76.7346 91.6893 77.8531 90.9637 79.1125 90.8068C80.3677 90.6499 81.6271 91.0844 82.5283 91.983L127.261 136.716L134.924 129.053C136.212 127.765 136.924 126.054 136.924 124.233C136.924 122.41 136.212 120.697 134.924 119.41L95.012 79.5008C94.1348 78.6223 93.6963 77.3938 93.8291 76.1573C93.9578 74.9221 94.6378 73.8116 95.6798 73.1343C122.697 55.5653 158.888 57.5731 183.704 78.0066L183.705 77.999ZM92.0899 171.877L121.434 142.532L80.6394 101.741C70.8719 122.793 75.3233 150.501 92.0889 171.877L92.0899 171.877ZM109.612 334.771L76.7189 301.878L70.3645 316.763C67.371 323.775 68.9201 331.787 74.3115 337.178C79.7028 342.568 87.7135 344.119 94.7264 341.125L109.612 334.771ZM123.809 328.127L83.3614 287.682C82.2643 289.674 81.2424 291.712 80.2835 293.793L117.697 331.206C119.778 330.245 121.817 329.223 123.808 328.126L123.809 328.127ZM205.698 230.404L181.083 205.793C173.636 215.144 164.558 223.261 154.405 229.505L116.648 252.722C105.023 259.873 95.2836 269.324 87.7842 280.453L131.034 323.702C142.164 316.203 151.615 306.465 158.765 294.837L181.984 257.081C188.233 246.924 196.351 237.847 205.697 230.404H205.698ZM186.344 199.402L212.41 225.466C212.574 225.356 212.73 225.235 212.895 225.127L225.033 217.096L217.041 209.21C216.95 209.133 216.839 209.104 216.753 209.018L202.47 194.739C202.468 194.737 202.467 194.735 202.466 194.733L194.21 186.477L186.364 198.594C186.238 198.785 186.097 198.966 185.969 199.155C186.089 199.247 186.234 199.29 186.344 199.402L186.344 199.402ZM278.714 244.482L244.98 278.214L302.396 335.633C311.698 344.931 326.826 344.931 336.129 335.633C345.427 326.331 345.427 311.199 336.129 301.898L278.714 244.482ZM268.684 234.451L234.951 268.185L239.154 272.388L272.888 238.656L268.684 234.451ZM258.653 224.421L224.921 258.156L229.125 262.36L262.858 228.627L258.653 224.421ZM232.915 198.681L225.492 206.105L230.839 211.452C232.569 213.186 233.422 215.576 233.177 218.01C232.931 220.442 231.62 222.613 229.584 223.965L217.441 231.997C213.745 234.443 210.238 237.189 206.91 240.143L219.095 252.328L252.827 218.594L232.915 198.681ZM211.21 191.825L215.437 196.052L219.666 200.279L300.61 119.334C301.342 118.599 302.328 118.17 303.366 118.129L311.852 117.807L327.072 91.9119L319.621 84.4591L294.048 100.12L293.344 108.319C293.263 109.288 292.841 110.194 292.153 110.88L211.21 191.825ZM104.581 77.4061L140.751 113.576C143.596 116.418 145.165 120.202 145.165 124.225C145.165 128.246 143.596 132.029 140.751 134.874L91.222 184.4C101.478 192.342 113.709 191.284 126.592 190.158C140.308 188.964 154.503 187.73 165.337 198.574L170.878 204.115C171.045 204.282 171.122 204.496 171.255 204.683C174.244 201.326 177.019 197.783 179.492 194.048L187.523 181.913C188.875 179.871 191.047 178.56 193.481 178.314C195.94 178.053 198.309 178.921 200.036 180.654L205.383 186.001L212.924 178.46C212.691 178.307 212.436 178.203 212.231 177.998L199.074 164.839C197.911 163.676 197.553 161.934 198.157 160.407C208.855 133.436 200.941 102.874 178.466 84.3582C157.725 67.2732 128.027 64.6811 104.581 77.4071L104.581 77.4061Z" fill="white"/>
</svg>
