<svg width="1920" height="1080" viewBox="0 0 1920 1080" fill="none" xmlns="http://www.w3.org/2000/svg">
<rect width="1920" height="1080" fill="white"/>
<path d="M1291.35 819.014C1322.1 844.25 1358.79 861.772 1398.25 867.943C1439.13 874.335 1481.23 869.927 1519.47 853.948C1540.51 845.132 1559.8 833.341 1577.32 818.794C1581.95 815.047 1581.29 807.113 1577.32 803.256C1572.8 798.738 1566.3 799.509 1561.78 803.256C1505.14 849.981 1425.36 861.552 1357.47 833.781C1339.29 826.288 1322.1 815.929 1306.89 803.367C1302.26 799.62 1295.76 798.849 1291.35 803.367C1287.39 807.335 1286.72 815.159 1291.35 819.015V819.014Z" fill="#08B4B2"/>
<path d="M1486.18 454.041C1566.52 475.861 1627.46 547.05 1634.4 630.471C1636.83 660.446 1632.75 690.31 1622.39 718.631C1620.3 724.25 1624.7 730.752 1630.1 732.186C1636.28 733.839 1641.57 730.093 1643.66 724.471C1661.62 675.212 1661.73 619.34 1643.11 570.191C1627.02 527.654 1598.37 490.957 1561.12 464.84C1540.29 450.294 1516.71 439.495 1492.13 432.772C1478.36 429.138 1472.52 450.407 1486.18 454.042L1486.18 454.041Z" fill="#08B4B2"/>
<path d="M1246.17 718.741C1229.42 673.119 1229.31 623.088 1246.17 577.465C1260.05 539.777 1286.17 506.276 1319.23 483.464C1338.51 470.131 1359.78 460.212 1382.37 454.042C1396.04 450.295 1390.2 429.026 1376.53 432.773C1332.9 444.565 1293 469.689 1264.02 504.403C1234.16 540.109 1216.08 584.078 1212.23 630.472C1209.58 662.21 1214.1 694.608 1225.01 724.583C1227.1 730.202 1232.5 733.949 1238.56 732.297C1243.85 730.753 1248.26 724.361 1246.17 718.741Z" fill="#08B4B2"/>
<path d="M1478.58 436.299C1478.36 454.483 1467.23 471.563 1449.82 477.844C1431.86 484.346 1411.58 478.836 1399.57 463.96C1388.11 449.634 1386.89 429.246 1396.26 413.598C1405.52 398.06 1424.03 389.465 1441.88 392.66C1463.15 396.406 1478.25 414.92 1478.58 436.298C1478.8 450.515 1500.84 450.515 1500.62 436.298C1500.29 408.418 1483.1 383.953 1457.09 374.035C1431.53 364.337 1400.89 372.602 1383.59 393.65C1365.96 415.14 1362.87 445.995 1377.31 470.129C1391.74 494.263 1419.73 506.274 1447.17 501.317C1478.25 495.697 1500.29 467.265 1500.73 436.299C1500.84 422.084 1478.8 422.084 1478.58 436.301L1478.58 436.299Z" fill="#08B4B2"/>
<path d="M1306.12 770.425C1305.9 788.609 1294.77 805.69 1277.35 811.971C1259.39 818.472 1239.11 812.962 1227.1 798.086C1215.64 783.761 1214.43 763.372 1223.8 747.725C1233.05 732.187 1251.57 723.592 1269.42 726.786C1290.69 730.533 1305.79 749.046 1306.12 770.425C1306.34 784.641 1328.38 784.641 1328.16 770.425C1327.83 742.545 1310.64 718.08 1284.63 708.162C1259.06 698.464 1228.43 706.729 1211.12 727.777C1193.49 749.266 1190.41 780.122 1204.84 804.256C1219.28 828.389 1247.27 840.401 1274.71 835.443C1305.79 829.824 1327.83 801.391 1328.27 770.425C1328.38 756.213 1306.34 756.213 1306.12 770.427L1306.12 770.425Z" fill="#08B4B2"/>
<path d="M1651.36 770.425C1651.14 788.609 1640.01 805.69 1622.6 811.971C1604.64 818.472 1584.36 812.962 1572.35 798.086C1560.89 783.761 1559.68 763.372 1569.04 747.725C1578.3 732.187 1596.81 723.592 1614.67 726.786C1635.93 730.533 1651.03 749.046 1651.36 770.425C1651.58 784.641 1673.62 784.641 1673.4 770.425C1673.07 742.545 1655.88 718.08 1629.87 708.162C1604.31 698.464 1573.67 706.729 1556.37 727.777C1538.74 749.266 1535.65 780.122 1550.09 804.256C1564.53 828.389 1592.52 840.401 1619.96 835.443C1651.03 829.824 1673.07 801.391 1673.51 770.425C1673.62 756.213 1651.58 756.213 1651.36 770.427L1651.36 770.425Z" fill="#08B4B2"/>
<path fill-rule="evenodd" clip-rule="evenodd" d="M1395.26 596.833C1395.26 596.833 1419.51 611.354 1427.42 627.886C1430.3 627.071 1433.33 626.627 1436.41 626.627C1439.55 626.627 1442.63 627.088 1445.55 627.933C1453.45 611.381 1477.74 596.833 1477.74 596.833C1478.6 606.268 1477.79 628.916 1468.21 647.86C1467.65 646.878 1467.12 645.961 1466.58 645.082C1469.77 638.291 1470.7 633.913 1470.78 625.564C1468.94 633.143 1467.87 637.409 1464.51 641.865C1462.44 638.858 1460.04 635.921 1456.32 631.79L1456.33 631.68C1457.56 623.954 1459.46 619.301 1463.41 610.848C1455.68 620.195 1451.99 627.778 1452.1 634.536L1452.04 634.473C1452.09 638.301 1453.36 641.865 1455.8 645.332L1456.27 641.698L1458.38 643.027C1458.11 642.207 1457.85 641.524 1457.6 640.882C1457.34 640.188 1457.09 639.542 1456.88 638.823C1456.91 638.847 1456.94 638.87 1456.96 638.894C1456.96 638.87 1456.95 638.847 1456.94 638.823C1459.97 641.419 1462.7 644.384 1467.28 649.638L1467.22 649.749L1467.16 649.689C1467.38 650.907 1467.49 652.146 1467.49 653.399C1467.49 655.419 1467.19 657.951 1466.64 660.807C1467.51 661.325 1468.36 662.035 1468.92 663.15C1467.75 663.171 1466.94 663.271 1466.04 663.59C1466.01 663.725 1465.98 663.861 1465.94 663.997C1469.12 667.163 1470.57 669.409 1472.64 673.611C1469.38 670.812 1467.31 669.081 1464.99 667.65C1464.88 668.019 1464.77 668.391 1464.66 668.765C1466.45 672.026 1466.8 674.43 1465.98 678.575C1464.44 677.203 1463.34 676.239 1462.35 675.704C1461.63 677.656 1460.84 679.62 1460 681.563C1459.43 682.129 1458.97 682.744 1458.52 683.351C1457.32 684.977 1456.15 686.553 1452.96 687.018C1453.14 691.511 1452.17 693.48 1451.15 695.574C1450.63 696.623 1450.11 697.704 1449.7 699.148C1448.89 700.12 1448.07 701.026 1447.23 701.853C1442.04 704.529 1441.77 704.397 1436.93 702.03L1436.33 701.734C1430.9 704.382 1430.51 704.523 1425.9 702.158C1424.8 701.103 1423.73 699.911 1422.68 698.609C1422.3 697.426 1421.84 696.488 1421.39 695.574C1420.37 693.48 1419.4 691.511 1419.58 687.018C1416.39 686.553 1415.22 684.977 1414.02 683.351C1413.72 682.944 1413.41 682.534 1413.07 682.137C1412.14 680.032 1411.28 677.898 1410.49 675.777C1409.5 676.31 1408.39 677.279 1406.84 678.664C1406.02 674.505 1406.37 672.099 1408.17 668.823C1408.06 668.455 1407.95 668.089 1407.85 667.725C1405.51 669.16 1403.45 670.892 1400.18 673.7C1402.25 669.49 1403.7 667.244 1406.89 664.069C1406.86 663.941 1406.83 663.814 1406.8 663.687C1405.89 663.362 1405.08 663.26 1403.9 663.239C1404.46 662.118 1405.32 661.405 1406.19 660.886C1405.63 657.997 1405.33 655.438 1405.33 653.399C1405.33 652.156 1405.44 650.925 1405.66 649.715C1410.27 644.413 1413.01 641.432 1416.06 638.823C1415.85 639.542 1415.6 640.188 1415.33 640.882C1415.09 641.524 1414.82 642.207 1414.56 643.027L1416.67 641.697L1417.14 645.332C1423.89 635.758 1421.67 625.457 1409.59 610.848C1413.54 619.301 1415.44 623.954 1416.67 631.68L1416.67 631.79C1412.96 635.921 1410.56 638.858 1408.49 641.865C1405.13 637.409 1404.06 633.143 1402.22 625.564C1402.3 633.913 1403.23 638.291 1406.41 645.082C1405.88 645.96 1405.35 646.878 1404.79 647.859C1395.21 628.915 1394.4 606.268 1395.26 596.833ZM1427.88 667.405L1425.13 662.086L1417.4 660.668C1417.74 666.3 1421.4 668.469 1427.88 667.405ZM1448.75 662.086L1446 667.405C1452.48 668.469 1456.14 666.3 1456.48 660.668L1448.75 662.086ZM1431.46 689.807C1430.26 690.656 1429.52 691.82 1429.52 693.106C1429.52 695.701 1432.54 697.804 1436.27 697.804C1440 697.804 1443.02 695.701 1443.02 693.106C1443.02 691.753 1442.2 690.536 1440.89 689.678C1439.55 690.214 1437.86 690.536 1436 690.536C1434.31 690.536 1432.74 690.266 1431.46 689.807Z" fill="#08B4B2"/>
</svg>
