<svg width="1920" height="1080" viewBox="0 0 1920 1080" fill="none" xmlns="http://www.w3.org/2000/svg">
<rect width="1920" height="1080" fill="white"/>
<path d="M1440.43 699.941C1419.76 699.941 1400.43 686.742 1393.16 667.302C1385.79 647.453 1391.73 625.045 1407.69 611.233C1423.55 597.522 1447.29 595.374 1465.5 605.81C1483.61 616.247 1493.74 637.426 1490.16 657.992C1485.96 682.139 1464.78 699.635 1440.43 699.941C1433.88 700.042 1433.88 710.274 1440.43 710.172C1466.11 709.866 1489.24 693.699 1497.73 669.347C1506.12 645.507 1498.03 617.984 1478.29 602.228C1458.64 586.574 1430.61 584.527 1409.02 597.623C1387.33 610.822 1376.18 636.503 1380.88 661.366C1386.2 689.402 1411.99 710.171 1440.33 710.171C1447.08 710.173 1447.08 699.941 1440.43 699.941L1440.43 699.941Z" fill="#08B4B2"/>
<path d="M1348.65 854.234C1348.65 839.501 1348.55 824.87 1348.65 810.136C1348.96 780.976 1368.4 756.829 1394.08 744.653C1407.48 738.411 1422.01 735.752 1436.74 735.752C1450.05 735.752 1463.04 736.367 1475.83 740.561C1502.84 749.257 1526.27 771.052 1531.08 799.7C1532.62 808.91 1531.9 818.732 1531.9 828.042V854.132C1531.9 860.68 1542.13 860.68 1542.13 854.132C1542.13 837.558 1543.26 820.573 1541.93 804.1C1539.27 773.098 1517.68 747.314 1489.75 734.934C1436.64 711.298 1354.89 729.818 1340.36 793.152C1337.91 803.793 1338.42 814.741 1338.42 825.585V854.132C1338.42 860.783 1348.65 860.885 1348.65 854.235L1348.65 854.234Z" fill="#08B4B2"/>
<path d="M1284.91 734.728C1269.36 734.728 1254.83 724.906 1249.4 710.275C1243.78 695.439 1248.18 678.454 1260.05 668.018C1271.91 657.582 1289.72 655.74 1303.43 663.413C1317.14 671.087 1325.02 686.741 1322.66 702.293C1319.69 721.018 1303.53 734.42 1284.91 734.728C1278.36 734.83 1278.36 745.062 1284.91 744.96C1305.68 744.654 1324.2 731.556 1330.75 711.707C1336.99 692.881 1330.44 671.395 1314.99 659.116C1299.23 646.532 1276.72 644.996 1259.53 655.638C1242.34 666.279 1233.75 686.639 1237.53 706.387C1241.93 728.589 1262.29 744.96 1284.8 744.96C1291.46 744.96 1291.46 734.728 1284.91 734.728L1284.91 734.728Z" fill="#08B4B2"/>
<path d="M1215.23 855.769V830.395C1215.23 819.958 1215.33 810.033 1220.04 800.314C1226.59 786.603 1238.76 776.167 1252.78 770.438C1265.67 765.118 1279.49 764.3 1293.2 765.016C1313.05 766.038 1331.98 774.941 1344.46 790.494C1348.55 795.609 1355.82 788.345 1351.72 783.23C1330.03 756.32 1290.43 748.851 1258.1 757.855C1227.61 766.45 1205 791.824 1205 824.054V855.771C1205 862.316 1215.23 862.316 1215.23 855.768L1215.23 855.769Z" fill="#08B4B2"/>
<path d="M1596.56 735.035C1581.01 735.035 1566.48 725.213 1561.06 710.582C1555.43 695.746 1559.83 678.761 1571.7 668.325C1583.57 657.889 1601.37 656.046 1615.08 663.72C1628.79 671.394 1636.67 687.048 1634.32 702.6C1631.45 721.223 1615.19 734.729 1596.56 735.035C1590.02 735.137 1590.02 745.368 1596.56 745.267C1617.33 744.961 1635.85 731.863 1642.4 712.014C1648.64 693.188 1642.1 671.702 1626.65 659.423C1610.89 646.838 1588.38 645.303 1571.19 655.945C1554 666.586 1545.41 686.946 1549.19 706.694C1553.59 728.895 1573.95 745.267 1596.46 745.267C1603.21 745.267 1603.21 735.035 1596.56 735.035L1596.56 735.035Z" fill="#08B4B2"/>
<path d="M1537.43 791.207C1548.27 777.395 1564.13 768.8 1581.42 766.038C1594.72 763.991 1609.97 764.502 1622.86 768.391C1637.49 772.79 1651 782 1659.18 794.992C1665.43 804.917 1667.06 815.456 1667.06 826.915V855.973C1667.06 862.52 1677.29 862.52 1677.29 855.973C1677.29 834.69 1680.26 811.26 1669.31 792.025C1652.53 762.557 1617.75 752.325 1585.72 755.293C1564.34 757.236 1543.67 766.957 1530.16 783.941C1526.17 789.057 1533.34 796.323 1537.43 791.207L1537.43 791.207Z" fill="#08B4B2"/>
</svg>
