<svg width="1920" height="1080" viewBox="0 0 1920 1080" fill="none" xmlns="http://www.w3.org/2000/svg">
<rect width="1920" height="1080" fill="url(#paint0_radial_13774_30)"/>
<path d="M1437.16 694.286C1416.34 694.286 1396.86 680.213 1389.54 659.486C1382.12 638.323 1388.1 614.431 1404.18 599.705C1420.16 585.087 1444.07 582.796 1462.41 593.923C1480.66 605.051 1490.86 627.632 1487.25 649.559C1483.03 675.305 1461.69 693.959 1437.16 694.286C1430.57 694.394 1430.57 705.303 1437.16 705.195C1463.03 704.868 1486.33 687.631 1494.88 661.667C1503.33 636.248 1495.19 606.903 1475.3 590.103C1455.51 573.413 1427.27 571.231 1405.52 585.194C1383.67 599.267 1372.43 626.648 1377.17 653.157C1382.53 683.049 1408.51 705.193 1437.06 705.193C1443.86 705.195 1443.86 694.286 1437.16 694.286L1437.16 694.286Z" fill="white"/>
<path d="M1344.71 858.794C1344.71 843.085 1344.6 827.485 1344.71 811.776C1345.01 780.686 1364.6 754.94 1390.47 741.958C1403.97 735.303 1418.61 732.468 1433.45 732.468C1446.85 732.468 1459.94 733.123 1472.82 737.595C1500.03 746.867 1523.63 770.104 1528.48 800.65C1530.03 810.469 1529.3 820.941 1529.3 830.868V858.685C1529.3 865.667 1539.61 865.667 1539.61 858.685C1539.61 841.013 1540.74 822.904 1539.4 805.34C1536.73 772.286 1514.98 744.795 1486.84 731.595C1433.35 706.395 1350.99 726.14 1336.36 793.667C1333.88 805.013 1334.4 816.686 1334.4 828.248V858.685C1334.4 865.777 1344.71 865.885 1344.71 858.795L1344.71 858.794Z" fill="white"/>
<path d="M1280.5 731.376C1264.83 731.376 1250.2 720.904 1244.73 705.304C1239.06 689.485 1243.5 671.376 1255.45 660.249C1267.41 649.122 1285.34 647.158 1299.15 655.34C1312.96 663.521 1320.9 680.212 1318.53 696.794C1315.54 716.758 1299.26 731.048 1280.5 731.376C1273.9 731.485 1273.9 742.393 1280.5 742.285C1301.42 741.959 1320.08 727.994 1326.67 706.831C1332.96 686.758 1326.36 663.85 1310.8 650.758C1294.93 637.34 1272.25 635.703 1254.94 647.049C1237.62 658.395 1228.96 680.103 1232.78 701.158C1237.21 724.83 1257.72 742.285 1280.39 742.285C1287.09 742.285 1287.09 731.376 1280.5 731.376L1280.5 731.376Z" fill="white"/>
<path d="M1210.31 860.43V833.376C1210.31 822.249 1210.41 811.666 1215.15 801.304C1221.75 786.686 1234.01 775.558 1248.13 769.45C1261.12 763.778 1275.03 762.906 1288.85 763.669C1308.84 764.759 1327.91 774.251 1340.48 790.833C1344.61 796.288 1351.92 788.543 1347.8 783.088C1325.95 754.397 1286.06 746.434 1253.49 756.034C1222.78 765.198 1200 792.252 1200 826.616V860.433C1200 867.411 1210.31 867.411 1210.31 860.429L1210.31 860.43Z" fill="white"/>
<path d="M1594.45 731.704C1578.78 731.704 1564.15 721.232 1558.68 705.632C1553.01 689.813 1557.45 671.704 1569.4 660.577C1581.36 649.45 1599.29 647.486 1613.1 655.667C1626.91 663.849 1634.85 680.539 1632.48 697.121C1629.59 716.978 1613.21 731.377 1594.45 731.704C1587.85 731.812 1587.85 742.721 1594.45 742.613C1615.37 742.286 1634.03 728.322 1640.62 707.158C1646.91 687.086 1640.31 664.177 1624.75 651.086C1608.88 637.668 1586.2 636.031 1568.89 647.377C1551.57 658.723 1542.91 680.431 1546.72 701.486C1551.16 725.157 1571.67 742.613 1594.34 742.613C1601.14 742.613 1601.14 731.704 1594.45 731.704L1594.45 731.704Z" fill="white"/>
<path d="M1534.87 791.594C1545.8 776.868 1561.77 767.704 1579.19 764.759C1592.59 762.576 1607.95 763.122 1620.93 767.267C1635.67 771.958 1649.28 781.777 1657.52 795.63C1663.81 806.212 1665.46 817.448 1665.46 829.666V860.648C1665.46 867.629 1675.77 867.629 1675.77 860.648C1675.77 837.956 1678.76 812.975 1667.73 792.466C1650.83 761.048 1615.78 750.138 1583.52 753.303C1561.98 755.375 1541.16 765.738 1527.55 783.847C1523.53 789.302 1530.75 797.049 1534.87 791.594L1534.87 791.594Z" fill="white"/>
<defs>
<radialGradient id="paint0_radial_13774_30" cx="0" cy="0" r="1" gradientUnits="userSpaceOnUse" gradientTransform="translate(960 540.001) rotate(29.1896) scale(1689.56 11019)">
<stop offset="0.140625" stop-color="#3B4E70"/>
<stop offset="1" stop-color="#849CC1"/>
</radialGradient>
</defs>
</svg>
