<svg width="473" height="272" viewBox="0 0 473 272" fill="none" xmlns="http://www.w3.org/2000/svg">
<path d="M235.432 110.941C214.764 110.941 195.426 97.7416 188.162 78.3022C180.794 58.4533 186.729 36.0451 202.69 22.2327C218.548 8.52232 242.286 6.3741 260.499 16.8104C278.609 27.2467 288.737 48.4262 285.157 68.9919C280.962 93.139 259.782 110.635 235.431 110.941C228.883 111.042 228.883 121.274 235.431 121.172C261.112 120.866 284.236 104.699 292.728 80.3473C301.118 56.5067 293.035 28.9844 273.287 13.2276C253.643 -2.42642 225.608 -4.47317 204.019 8.62293C182.328 21.8222 171.176 47.5028 175.882 72.3662C181.202 100.402 206.987 121.171 235.328 121.171C242.082 121.173 242.082 110.941 235.431 110.941L235.432 110.941Z" fill="#08B4B2"/>
<path d="M143.65 265.234C143.65 250.501 143.548 235.87 143.65 221.136C143.956 191.976 163.397 167.829 189.079 155.653C202.482 149.411 217.011 146.752 231.745 146.752C245.045 146.752 258.04 147.367 270.83 151.561C297.841 160.257 321.272 182.052 326.08 210.7C327.616 219.91 326.9 229.732 326.9 239.042V265.132C326.9 271.68 337.131 271.68 337.131 265.132C337.131 248.558 338.257 231.573 336.927 215.1C334.267 184.098 312.678 158.314 284.745 145.934C231.643 122.298 149.892 140.818 135.363 204.152C132.907 214.793 133.42 225.741 133.42 236.585V265.132C133.418 271.783 143.649 271.885 143.649 265.235L143.65 265.234Z" fill="#08B4B2"/>
<path d="M79.9085 145.728C64.3564 145.728 49.8279 135.906 44.4043 121.275C38.7773 106.439 43.1769 89.4543 55.0456 79.018C66.9143 68.5817 84.7183 66.7396 98.4279 74.4133C112.137 82.0871 120.017 97.7411 117.664 113.293C114.695 132.018 98.5297 145.42 79.9085 145.728C73.3607 145.83 73.3603 156.062 79.9081 155.96C100.678 155.654 119.198 142.556 125.746 122.707C131.988 103.881 125.44 82.3949 109.989 70.1165C94.2316 57.5315 71.7215 55.9964 54.5332 66.6376C37.344 77.279 28.7494 97.6391 32.5342 117.387C36.9339 139.589 57.294 155.96 79.8045 155.96C86.456 155.96 86.456 145.728 79.9078 145.728L79.9085 145.728Z" fill="#08B4B2"/>
<path d="M10.2308 266.769V241.395C10.2308 230.958 10.3324 221.033 15.0401 211.314C21.588 197.603 33.7649 187.167 47.7819 181.438C60.6729 176.118 74.4869 175.3 88.1974 176.016C108.046 177.038 126.976 185.941 139.458 201.494C143.551 206.609 150.816 199.345 146.722 194.23C125.031 167.32 85.4344 159.851 53.1023 168.855C22.612 177.45 0 202.824 0 235.054V266.771C0 273.316 10.2317 273.316 10.2317 266.768L10.2308 266.769Z" fill="#08B4B2"/>
<path d="M391.565 146.035C376.013 146.035 361.484 136.213 356.06 121.582C350.433 106.746 354.833 89.7612 366.702 79.3249C378.571 68.8886 396.375 67.0465 410.084 74.7202C423.795 82.394 431.673 98.048 429.32 113.6C426.454 132.223 410.186 145.729 391.565 146.035C385.017 146.137 385.017 156.368 391.564 156.267C412.334 155.961 430.854 142.863 437.402 123.014C443.644 104.188 437.096 82.7018 421.645 70.4234C405.888 57.8384 383.378 56.3032 366.189 66.9445C349 77.5859 340.406 97.946 344.19 117.694C348.59 139.895 368.95 156.267 391.461 156.267C398.214 156.267 398.214 146.035 391.564 146.035L391.565 146.035Z" fill="#08B4B2"/>
<path d="M332.428 202.207C343.273 188.395 359.133 179.8 376.424 177.038C389.724 174.991 404.97 175.502 417.861 179.391C432.493 183.79 445.999 193 454.183 205.992C460.425 215.917 462.062 226.456 462.062 237.915V266.973C462.062 273.52 472.293 273.52 472.293 266.973C472.293 245.69 475.261 222.26 464.313 203.025C447.534 173.557 412.746 163.325 380.721 166.293C359.336 168.236 338.668 177.957 325.163 194.941C321.172 200.057 328.335 207.323 332.427 202.207L332.428 202.207Z" fill="#08B4B2"/>
</svg>
