<svg width="372" height="391" viewBox="0 0 372 391" fill="none" xmlns="http://www.w3.org/2000/svg">
<path d="M222.164 39.7616C250.492 46.2235 277.331 60.1382 298.702 79.5216C300.194 81.0133 301.684 81.51 303.672 81.51C305.661 81.51 307.649 80.5166 309.139 79.025C312.12 76.0433 311.624 71.0734 308.642 68.5884C284.785 47.7152 255.96 32.8052 225.146 25.8464C221.169 24.853 217.195 27.338 216.199 31.313C215.704 34.7913 218.189 38.768 222.164 39.7611L222.164 39.7616Z" fill="white"/>
<path d="M355.855 135.186C354.364 131.209 349.892 129.719 345.915 131.209C341.939 132.701 340.449 137.172 341.939 141.149C349.394 160.036 353.867 178.921 354.86 198.304H251.484C250.988 178.921 249.993 160.532 247.508 142.64C267.388 139.658 285.279 135.185 301.184 129.222C305.16 127.73 307.147 123.259 305.657 119.778C304.165 115.802 299.694 113.815 296.214 115.305C281.304 120.772 264.405 125.245 245.52 128.227C241.046 100.395 234.088 75.5446 225.143 57.1556C223.155 53.6772 218.681 51.689 215.203 53.6772C211.725 55.6656 209.736 60.1391 211.725 63.6172C219.676 81.0122 226.138 103.874 230.611 130.215C215.701 131.707 200.295 132.7 184.887 132.7C168.984 132.7 153.576 131.707 138.666 130.215C143.14 102.88 149.6 80.0182 157.553 63.1202C159.542 59.6419 158.05 55.1687 154.075 53.1802C150.597 51.1919 146.123 52.6836 144.135 56.6586C135.188 75.0468 128.232 99.4006 123.758 128.227C92.9452 123.257 66.6034 114.808 49.2084 103.377C73.0652 72.0647 107.357 49.2036 148.111 40.2576C152.088 39.2642 154.573 35.2876 153.578 31.3107C152.585 27.3341 148.608 24.8489 144.631 25.8442C59.64 44.2323 0 118.783 0 205.758C0 228.123 3.97666 250.985 11.9284 270.865C12.9218 273.847 15.9051 275.835 18.8868 275.835C19.8802 275.835 20.8752 275.835 21.3718 275.339C25.3485 273.847 27.335 269.375 25.8452 265.895C19.3834 249.493 15.9052 231.602 14.9121 213.213H85.9831C89.9597 213.213 93.4381 209.735 93.4381 205.758C93.4381 201.781 89.9597 198.303 85.9831 198.303H14.9079C16.3996 167.987 25.3445 139.657 40.7511 115.304C59.6379 127.729 88.4631 137.669 121.762 142.639C120.769 149.101 120.27 156.057 119.774 163.016C119.277 166.992 122.259 170.471 126.732 170.967H127.229C131.206 170.967 134.187 167.986 134.684 164.009C135.181 157.547 135.677 151.087 136.672 144.625C152.079 146.614 168.481 147.607 184.881 147.607C201.283 147.607 217.683 146.614 233.09 144.625C235.079 161.524 236.569 179.415 236.569 198.301H164.007C160.03 198.301 156.552 201.78 156.552 205.756C156.552 209.733 160.03 213.211 164.007 213.211H236.569C236.569 218.678 236.569 224.145 236.072 229.613C235.575 233.59 239.054 237.068 243.03 237.565H243.527C247.504 237.565 250.485 234.583 250.982 230.606C251.479 224.643 251.479 219.175 251.479 213.211H354.855C353.363 243.528 344.418 271.857 329.011 296.21C316.586 288.259 300.185 281.3 280.802 276.33C276.826 275.337 272.851 277.822 271.856 281.797C270.862 285.774 273.347 289.749 277.322 290.744C294.717 295.217 309.627 301.677 320.561 308.635C295.215 341.934 257.442 365.79 214.203 373.245C224.143 360.324 233.09 339.947 239.55 313.605C240.543 309.629 238.058 305.654 234.083 304.659C230.107 303.665 226.132 306.15 225.136 310.125C214.7 350.878 199.293 376.226 185.376 376.226C168.478 376.226 148.598 341.436 139.155 281.796C153.569 280.305 168.975 279.311 185.376 279.311H198.795C202.771 279.311 206.25 275.833 206.25 271.856C206.25 267.88 202.771 264.401 198.795 264.401H185.376C168.975 264.401 152.575 265.395 137.167 267.383C136.174 259.928 135.676 252.473 135.179 244.025C134.682 240.048 131.202 236.57 127.227 237.066C123.251 237.563 119.772 241.043 120.269 245.018C120.766 252.969 121.761 261.42 122.754 269.371C106.851 271.856 91.9409 275.334 79.018 279.808C75.0414 281.3 73.0549 285.274 74.5446 289.251C75.538 292.233 78.5213 294.221 81.503 294.221C82.4964 294.221 82.9947 294.221 83.988 293.725C96.413 289.748 110.33 286.27 125.24 283.785C131.203 320.563 141.642 353.862 156.552 373.245C125.739 367.778 96.9117 353.861 73.5527 332.988C70.571 330.006 65.6011 330.503 63.1161 333.485C60.1344 336.466 60.6311 341.436 63.6128 343.921C97.4096 373.741 141.145 390.639 186.372 390.639C288.257 390.639 371.256 307.64 371.256 205.755C369.766 181.898 365.293 158.043 355.849 135.181L355.855 135.186Z" fill="white"/>
<path d="M331.502 131.21C345.915 131.21 357.844 119.281 357.844 104.868C357.844 90.4543 345.915 78.5259 331.502 78.5259C317.089 78.5259 305.16 90.4543 305.16 104.868C305.162 119.281 317.09 131.21 331.502 131.21ZM331.502 93.438C337.964 93.438 342.934 98.408 342.934 104.87C342.934 111.332 337.964 116.302 331.502 116.302C325.04 116.302 320.07 111.332 320.07 104.87C320.072 98.408 325.042 93.438 331.502 93.438Z" fill="white"/>
<path d="M152.084 205.76C152.084 191.346 140.156 179.418 125.743 179.418C111.331 179.418 99.4023 191.346 99.4023 205.76C99.4023 220.173 111.331 232.102 125.744 232.102C140.156 232.102 152.084 220.173 152.084 205.76ZM114.313 205.76C114.313 199.298 119.283 194.328 125.745 194.328C132.206 194.328 137.176 199.298 137.176 205.76C137.176 212.222 132.206 217.192 125.745 217.192C119.283 217.192 114.313 212.222 114.313 205.76Z" fill="white"/>
<path d="M184.889 52.6837C199.302 52.6837 211.231 40.7552 211.231 26.3418C211.231 11.9284 199.302 0 184.889 0C170.475 0 158.547 11.9284 158.547 26.3418C158.548 40.7569 170.477 52.6837 184.889 52.6837ZM184.889 14.9121C191.351 14.9121 196.321 19.8821 196.321 26.3439C196.321 32.8057 191.351 37.7757 184.889 37.7757C178.427 37.7757 173.457 32.8057 173.457 26.3439C173.458 19.8821 178.429 14.9121 184.889 14.9121Z" fill="white"/>
<path d="M265.402 271.364C265.402 256.95 253.474 245.022 239.061 245.022C224.647 245.022 212.719 256.95 212.719 271.364C212.719 285.777 224.647 297.706 239.061 297.706C253.474 297.706 265.402 285.777 265.402 271.364ZM227.631 271.364C227.631 264.902 232.601 259.932 239.063 259.932C245.524 259.932 250.494 264.902 250.494 271.364C250.494 277.826 245.524 282.796 239.063 282.796C232.601 282.796 227.631 277.826 227.631 271.364Z" fill="white"/>
<path d="M68.0938 304.663C68.0938 290.249 56.1654 278.321 41.752 278.321C27.3386 278.321 15.4102 290.249 15.4102 304.663C15.4102 319.076 27.3386 331.004 41.752 331.004C56.1671 331.003 68.0938 319.076 68.0938 304.663ZM41.7536 316.093C35.2918 316.093 30.3218 311.123 30.3218 304.661C30.3218 298.199 35.2918 293.229 41.7536 293.229C48.2155 293.229 53.1855 298.199 53.1855 304.661C53.1838 311.123 48.2138 316.093 41.7536 316.093Z" fill="white"/>
</svg>
