<?xml version="1.0" encoding="UTF-8"?>
<svg width="1200pt" height="1200pt" version="1.1" viewBox="0 0 1200 1200" xmlns="http://www.w3.org/2000/svg">
 <path d="m1153.5 828c0.35156-0.71484 0.66406-1.4453 0.91406-2.1953 71.098-164.09 58.395-365.27-33.949-519.02 49.297-58.934-14.738-143.33-84.762-110.67-12.305-12.574-25.227-24.629-38.613-36.023 26.281-71.441-61.43-130.05-116.05-76.672-158.77-80.172-356.25-79.156-514.14 2.7148-56.168-59.523-150.5 4.2969-116.49 78.98-19.477 17.031-37.91 35.43-54.91 54.883-14.676 16.797 11.91 39.82 26.488 23.141 15.812-18.098 32.945-35.219 51.043-51.082 34.996 25.242 85.742 12.383 104.94-26.148 63.359 18.238 123.87 44.414 180.25 78.008-4.7188 17.02-2.793 36.031 5.3047 51.742-46.402 40.086-88.195 85.43-124.48 135.12-33.5-10.121-70.426 6.8203-84.996 38.547-73.879 0.39453-147.99 8.3438-220.75 23.723-6.4258-11.973-16.164-21.895-27.973-28.539 13.672-53.309 35.324-104.02 64.488-150.91 11.621-18.688-17.711-38.113-29.867-18.578-31.008 49.852-54.039 103.76-68.605 160.43-84.25 1.4297-98.395 117.98-18.188 140.4-1.1836 165.88 70.535 327.15 194.9 437.01-25.941 70.078 58.281 127.88 113.86 78.457 162.21 86.254 367.21 86.266 529.44 0.027344 56.531 55.91 147.07-6.5508 115.23-79.641 64.098-56.961 113.89-126.63 146.92-203.7zm-22.16-39.332c-48.68-48.363-101.96-92.238-158.83-130.75 8.0781-25.305 1.0586-53.773-17.805-72.449 47.828-79.523 85.379-164.8 111.81-253.88 8.8086 0.03125 17.273-1.5938 25.074-4.5352 80.988 136.78 95.801 313.14 39.758 461.61zm-809.26 198.8c-14.801-144.97 11.172-289.59 75.449-420.29 39.934 12.461 83.094-13.801 90.848-54.789 121.26 14.949 238.05 50.551 347.65 105.99-5.2695 20.488-0.90625 43.082 11.648 60.125-123.54 156.52-286.62 274.29-473.26 341.79-11.309-17.906-30.328-30.438-52.344-32.824zm546.88-351.27c0-19.93 16.094-36.141 35.879-36.141 47.594 1.9805 47.582 70.309 0 72.281-19.785 0-35.879-16.211-35.879-36.141zm233.59-375.92c0 19.93-16.094 36.141-35.879 36.141-47.598-1.9805-47.586-70.309 0-72.281 19.785 0 35.879 16.211 35.879 36.141zm-93.715-41.344c-24.305 34.152-13.027 83.523 23.621 103.82-25.602 85.922-61.902 168.18-108.08 244.89-9.6523-2.7773-20.371-3.4648-30.297-1.9453-48.266-103.07-118.5-195.9-204.29-270.05 8.1055-15.723 10.039-34.699 5.3125-51.742 54.305-32.355 112.47-57.852 173.3-75.977 20.219 39.031 74.449 50.051 108.12 20.832 11.16 9.6016 21.961 19.684 32.312 30.168zm-418.05 44.066c0-19.93 16.094-36.141 35.879-36.141 47.598 1.9805 47.582 70.305 0 72.277-19.785 0-35.879-16.211-35.879-36.137zm340.16-165.03c19.785 0 35.879 16.211 35.879 36.141-1.9727 47.945-69.793 47.934-71.758 0 0-19.93 16.094-36.141 35.879-36.141zm-616.55 72.277c-19.785 0-35.879-16.211-35.879-36.141 1.9727-47.945 69.793-47.93 71.758 0 0 19.93-16.098 36.141-35.879 36.141zm70.984-38.836c-0.18359-4.8828-0.85547-9.6367-1.9688-14.223 147.21-76.129 331.13-77.457 479.48-3.5391-1.9062 6.375-2.9492 13.117-2.9844 20.098-63.98 18.926-125.16 45.664-182.27 79.633-27.453-28.398-74.465-28.406-101.93-0.003906-59.52-35.402-123.41-62.922-190.32-81.965zm201.43 190.59c23.781 16.23 55.914 16.234 79.695 0.003907 81.91 70.723 149.01 159.25 195.23 257.56-3.1328 2.4062-6.0586 5.0742-8.75 7.9609-115.55-58.609-238.86-95.871-366.95-110.87-3.457-10.469-9.2656-19.867-16.801-27.559 34.375-46.695 73.824-89.348 117.57-127.1zm-168.21 140.91c19.785 0 35.879 16.211 35.879 36.141-1.9727 47.945-69.793 47.934-71.758 0 0.003907-19.93 16.098-36.141 35.879-36.141zm-383.77 63.82c0-19.93 16.094-36.141 35.879-36.141 47.594 1.9805 47.582 70.305 0 72.277-19.781 0.003906-35.879-16.211-35.879-36.137zm53.5 69.09s53.418-11.648 53.418-68.625c0 0 137.07-21.91 206.03-22.68 1.293 17.039 8.5703 32.414 19.73 44.016-68.535 137.88-96.18 290.74-80.266 443.93-6.8516 2.8555-13.16 6.7617-18.734 11.508-114.73-102.78-180.18-275-180.18-408.14zm226.07 498.66c-19.785 0-35.879-16.211-35.879-36.141 0-19.93 16.094-36.141 35.879-36.141 19.52 0 35.879 16.906 35.879 36.141 0 19.93-16.098 36.141-35.879 36.141zm312.27 46.609c-85.355 0-169.76-20.441-245.2-59.25 3.0625-8.7773 4.4141-18.773 3.8164-28.09 193.07-69.594 361.78-191.21 489.59-352.93 10.5 4.9258 22.152 7.1836 33.727 6.5781 7.8125 29 13.988 58.582 18.363 88.164 3.3516 22.645 38.156 17.586 34.793-5.1445-4.6445-31.41-11.223-62.828-19.57-93.598 4.2031-2.6172 8.1094-5.668 11.672-9.0781 58.688 39.84 113.4 85.578 162.97 136.2-30.742 67.957-75.48 129.48-132.33 180.33-5.6211-4.2188-11.887-7.6172-18.617-10.031 3.457-32.695 4.9609-65.703 4.457-98.355-0.35547-22.973-35.527-22.434-35.168 0.54297 0.48828 31.383-0.96484 63.117-4.3047 94.543-41.477 6.5977-68.605 49.605-57.176 89.914-75.91 39.426-160.97 60.207-247.02 60.207zm315.36-43.551c-19.785 0-35.879-16.211-35.879-36.141 1.9727-47.945 69.793-47.93 71.758 0 0 19.93-16.094 36.141-35.879 36.141z"/>
</svg>
