<svg width="497" height="497" viewBox="0 0 497 497" fill="none" xmlns="http://www.w3.org/2000/svg">
<path d="M291.742 82.5019C320.071 88.9637 346.909 102.878 368.28 122.262C369.772 123.754 371.262 124.25 373.25 124.25C375.239 124.25 377.227 123.257 378.717 121.765C381.699 118.784 381.202 113.814 378.22 111.329C354.363 90.4554 325.538 75.5454 294.724 68.5866C290.748 67.5933 286.773 70.0783 285.777 74.0532C285.282 77.5315 287.767 81.5082 291.742 82.5014L291.742 82.5019Z" fill="white"/>
<path d="M425.433 177.926C423.942 173.949 419.47 172.459 415.493 173.949C411.517 175.441 410.027 179.912 411.517 183.889C418.972 202.776 423.445 221.661 424.438 241.044H321.062C320.566 221.661 319.571 203.273 317.086 185.38C336.966 182.399 354.857 177.925 370.762 171.962C374.738 170.47 376.725 165.999 375.235 162.519C373.743 158.542 369.272 156.555 365.792 158.045C350.882 163.512 333.983 167.985 315.098 170.967C310.624 143.135 303.666 118.285 294.721 99.8958C292.733 96.4175 288.259 94.4292 284.781 96.4175C281.303 98.4058 279.315 102.879 281.303 106.357C289.254 123.752 295.716 146.614 300.19 172.955C285.28 174.447 269.873 175.44 254.466 175.44C238.562 175.44 223.154 174.447 208.245 172.955C212.718 145.62 219.178 122.758 227.131 105.86C229.12 102.382 227.628 97.9089 223.653 95.9205C220.175 93.9321 215.702 95.4238 213.713 99.3988C204.766 117.787 197.81 142.141 193.337 170.967C162.523 165.997 136.182 157.549 118.787 146.117C142.643 114.805 176.936 91.9438 217.69 82.9978C221.666 82.0045 224.151 78.0278 223.156 74.051C222.163 70.0743 218.186 67.5892 214.209 68.5844C129.218 86.9726 69.5781 161.523 69.5781 248.498C69.5781 270.863 73.5548 293.725 81.5065 313.605C82.4999 316.587 85.4832 318.575 88.465 318.575C89.4583 318.575 90.4533 318.575 90.95 318.079C94.9266 316.587 96.9131 312.116 95.4234 308.635C88.9615 292.234 85.4834 274.342 84.4902 255.953H155.561C159.538 255.953 163.016 252.475 163.016 248.498C163.016 244.522 159.538 241.043 155.561 241.043H84.4861C85.9777 210.727 94.9226 182.397 110.329 158.044C129.216 170.469 158.041 180.409 191.34 185.379C190.347 191.841 189.849 198.797 189.352 205.756C188.855 209.733 191.837 213.211 196.31 213.707H196.807C200.784 213.707 203.765 210.726 204.262 206.749C204.759 200.287 205.255 193.828 206.25 187.366C221.657 189.354 238.059 190.347 254.459 190.347C270.861 190.347 287.261 189.354 302.668 187.366C304.657 204.264 306.147 222.156 306.147 241.042H233.585C229.608 241.042 226.13 244.52 226.13 248.497C226.13 252.473 229.608 255.952 233.585 255.952H306.147C306.147 261.418 306.147 266.885 305.65 272.353C305.153 276.33 308.632 279.809 312.608 280.305H313.105C317.082 280.305 320.063 277.323 320.56 273.347C321.057 267.383 321.057 261.915 321.057 255.952H424.433C422.941 286.268 413.996 314.598 398.59 338.951C386.165 330.999 369.763 324.041 350.381 319.071C346.404 318.077 342.429 320.562 341.434 324.537C340.44 328.514 342.925 332.489 346.9 333.484C364.295 337.958 379.205 344.417 390.139 351.376C364.793 384.674 327.02 408.531 283.781 415.986C293.721 403.064 302.668 382.688 309.128 356.346C310.121 352.369 307.636 348.394 303.661 347.399C299.685 346.406 295.71 348.891 294.715 352.865C284.278 393.619 268.871 418.966 254.954 418.966C238.056 418.966 218.176 384.176 208.733 324.536C223.147 323.045 238.553 322.051 254.954 322.051H268.373C272.349 322.051 275.828 318.573 275.828 314.596C275.828 310.62 272.349 307.141 268.373 307.141H254.954C238.553 307.141 222.153 308.135 206.745 310.123C205.752 302.668 205.254 295.213 204.757 286.765C204.26 282.788 200.78 279.31 196.806 279.807C192.829 280.303 189.351 283.783 189.847 287.758C190.344 295.71 191.339 304.16 192.332 312.112C176.429 314.597 161.519 318.075 148.596 322.548C144.619 324.04 142.633 328.015 144.123 331.992C145.116 334.973 148.099 336.962 151.081 336.962C152.074 336.962 152.573 336.962 153.566 336.465C165.991 332.488 179.908 329.01 194.818 326.525C200.781 363.303 211.22 396.602 226.13 415.985C195.317 410.518 166.49 396.601 143.131 375.728C140.149 372.747 135.179 373.243 132.694 376.225C129.713 379.207 130.209 384.177 133.191 386.662C166.988 416.482 210.723 433.38 255.95 433.38C357.835 433.38 440.834 350.381 440.834 248.496C439.344 224.639 434.871 200.784 425.427 177.921L425.433 177.926Z" fill="white"/>
<path d="M401.08 173.95C415.494 173.95 427.422 162.021 427.422 147.608C427.422 133.195 415.494 121.266 401.08 121.266C386.667 121.266 374.738 133.195 374.738 147.608C374.74 162.021 386.668 173.95 401.08 173.95ZM401.08 136.178C407.542 136.178 412.512 141.148 412.512 147.61C412.512 154.072 407.542 159.042 401.08 159.042C394.618 159.042 389.648 154.072 389.648 147.61C389.65 141.148 394.62 136.178 401.08 136.178Z" fill="white"/>
<path d="M221.662 248.5C221.662 234.087 209.734 222.158 195.321 222.158C180.909 222.158 168.98 234.087 168.98 248.5C168.98 262.913 180.909 274.842 195.322 274.842C209.734 274.842 221.662 262.913 221.662 248.5ZM183.891 248.5C183.891 242.038 188.861 237.068 195.323 237.068C201.785 237.068 206.755 242.038 206.755 248.5C206.755 254.962 201.785 259.932 195.323 259.932C188.861 259.932 183.891 254.962 183.891 248.5Z" fill="white"/>
<path d="M254.467 95.4239C268.88 95.4239 280.809 83.4955 280.809 69.0821C280.809 54.6687 268.88 42.7402 254.467 42.7402C240.053 42.7402 228.125 54.6687 228.125 69.0821C228.127 83.4971 240.055 95.4239 254.467 95.4239ZM254.467 57.6523C260.929 57.6523 265.899 62.6223 265.899 69.0841C265.899 75.546 260.929 80.516 254.467 80.516C248.005 80.516 243.035 75.546 243.035 69.0841C243.037 62.6223 248.007 57.6523 254.467 57.6523Z" fill="white"/>
<path d="M334.981 314.104C334.981 299.691 323.052 287.762 308.639 287.762C294.225 287.762 282.297 299.691 282.297 314.104C282.297 328.517 294.225 340.446 308.639 340.446C323.052 340.446 334.981 328.517 334.981 314.104ZM297.209 314.104C297.209 307.642 302.179 302.672 308.641 302.672C315.103 302.672 320.073 307.642 320.073 314.104C320.073 320.566 315.103 325.536 308.641 325.536C302.179 325.536 297.209 320.566 297.209 314.104Z" fill="white"/>
<path d="M137.672 347.403C137.672 332.989 125.744 321.061 111.33 321.061C96.9167 321.061 84.9883 332.989 84.9883 347.403C84.9883 361.816 96.9167 373.745 111.33 373.745C125.745 373.743 137.672 361.816 137.672 347.403ZM111.332 358.833C104.87 358.833 99.8999 353.863 99.8999 347.401C99.8999 340.939 104.87 335.969 111.332 335.969C117.794 335.969 122.764 340.939 122.764 347.401C122.762 353.863 117.792 358.833 111.332 358.833Z" fill="white"/>
</svg>
