<svg width="1517" height="1517" viewBox="0 0 1517 1517" fill="none" xmlns="http://www.w3.org/2000/svg">
<path d="M893.299 108.84C893.299 168.038 832.705 217.643 758.423 217.643C686.103 217.643 623.548 168.044 623.548 108.84C623.548 48.0376 684.142 0.0376053 758.423 0.0376053C834.658 -1.56133 893.299 48.0376 893.299 108.84ZM758.423 1299.24C684.142 1299.24 623.548 1347.24 623.548 1408.04C623.548 1467.24 686.095 1516.85 758.423 1516.85C832.705 1516.85 893.299 1467.25 893.299 1408.04C893.299 1347.24 834.658 1297.64 758.423 1299.24ZM1247.1 1148.84C1247.1 1208.04 1307.69 1257.64 1381.97 1257.64C1454.29 1257.64 1516.85 1208.04 1516.85 1148.84C1516.85 1088.04 1456.26 1040.04 1381.97 1040.04C1305.74 1038.44 1247.1 1088.04 1247.1 1148.84ZM1381.97 478.44C1456.26 478.44 1516.85 430.44 1516.85 369.638C1516.85 310.44 1454.3 260.835 1381.97 260.835C1307.69 260.835 1247.1 310.434 1247.1 369.638C1247.1 430.44 1305.74 480.039 1381.97 478.44ZM134.876 1040.04C60.594 1040.04 0 1088.04 0 1148.84C0 1208.04 62.5471 1257.65 134.876 1257.65C209.158 1257.65 269.752 1208.05 269.752 1148.84C269.752 1088.04 211.111 1038.44 134.876 1040.04ZM269.752 369.64C269.752 310.443 209.158 260.838 134.876 260.838C62.5553 260.838 0 310.436 0 369.64C0 430.443 60.594 478.443 134.876 478.443C211.111 480.042 269.752 430.443 269.752 369.64ZM758.427 262.443C766.247 262.443 774.067 267.245 774.067 275.245V491.245C889.396 496.047 991.039 548.844 1043.82 627.245L1221.69 481.645C1227.56 476.843 1237.33 476.843 1243.19 481.645C1249.06 486.447 1249.06 494.447 1243.19 499.244L1057.5 651.244C1077.04 684.842 1086.82 721.645 1086.82 761.645C1086.82 800.046 1077.04 836.842 1059.45 870.448L1243.19 1020.85C1249.06 1025.65 1249.06 1033.65 1243.19 1038.45C1237.32 1043.25 1227.55 1043.25 1221.69 1038.45L1045.77 894.446C991.034 972.848 891.346 1027.25 774.065 1032.05V1244.85C774.065 1251.25 768.199 1257.65 758.425 1257.65C750.605 1257.65 742.785 1252.85 742.785 1244.85V1028.85C625.503 1024.04 523.858 971.248 471.082 891.246L295.159 1035.25C289.292 1040.05 279.518 1040.05 273.659 1035.25C267.792 1030.44 267.792 1022.44 273.659 1017.65L457.4 867.248C439.806 833.649 430.033 796.846 430.033 758.445C430.033 718.445 439.806 681.642 459.353 648.044L275.612 497.644C269.745 492.842 269.745 484.842 275.612 480.045C281.478 475.243 291.252 475.243 297.112 480.045L474.989 625.645C529.724 547.244 629.412 494.448 746.693 489.645L746.699 273.645C744.746 267.249 750.606 262.447 758.426 262.447L758.427 262.443ZM758.427 513.643C592.277 513.643 459.358 624.044 459.358 758.443C459.358 894.443 594.234 1003.24 758.427 1003.24C924.576 1003.24 1057.5 892.842 1057.5 758.443C1057.5 624.044 922.62 513.643 758.427 513.643ZM873.756 659.243C873.756 606.44 822.935 564.842 758.427 564.842C695.88 564.842 643.098 608.039 643.098 659.243C643.098 712.046 695.871 753.644 758.427 753.644C822.935 755.243 873.756 713.639 873.756 659.243ZM838.568 660.842C838.568 699.243 803.38 728.039 758.427 728.039C711.512 728.039 678.286 697.638 678.286 660.842C678.286 625.645 715.427 593.645 758.427 593.645C805.341 592.04 838.568 622.442 838.568 660.842ZM938.256 888.042C944.122 816.042 920.662 761.641 883.521 748.842C836.607 731.243 783.833 771.243 777.966 777.645C768.192 785.645 762.325 787.244 756.465 787.244C754.512 787.244 748.645 787.243 734.965 777.645C731.059 771.243 678.277 734.447 631.363 748.842C596.175 761.644 572.722 816.039 578.589 888.042H938.256ZM645.051 776.042C666.551 768.042 701.739 788.844 713.465 798.443C729.106 809.641 742.786 816.042 756.465 816.042C772.106 816.042 785.786 808.042 799.466 798.443C811.193 790.443 846.38 768.042 867.88 776.042C879.607 779.24 899.154 796.845 903.068 862.443H613.772C613.772 795.246 633.319 779.246 645.046 776.042H645.051Z" fill="white"/>
</svg>
