<svg width="551" height="551" viewBox="0 0 551 551" fill="none" xmlns="http://www.w3.org/2000/svg">
<path d="M132.352 475.014C163.098 500.25 199.795 517.772 239.246 523.943C280.13 530.335 322.227 525.927 360.466 509.948C381.514 501.132 400.799 489.341 418.321 474.794C422.949 471.047 422.289 463.113 418.321 459.256C413.803 454.738 407.301 455.509 402.783 459.256C346.14 505.981 266.355 517.552 198.472 489.781C180.288 482.288 163.098 471.929 147.89 459.367C143.263 455.62 136.761 454.849 132.352 459.367C128.387 463.335 127.725 471.159 132.352 475.015V475.014Z" fill="#08B4B2"/>
<path d="M327.183 110.041C407.519 131.861 468.46 203.05 475.402 286.471C477.827 316.446 473.748 346.31 463.39 374.631C461.297 380.25 465.704 386.752 471.105 388.186C477.276 389.839 482.566 386.093 484.659 380.471C502.622 331.212 502.732 275.34 484.109 226.191C468.02 183.654 439.367 146.957 402.12 120.84C381.293 106.294 357.71 95.4945 333.135 88.7719C319.358 85.138 313.518 106.407 327.182 110.042L327.183 110.041Z" fill="#08B4B2"/>
<path d="M87.1671 374.741C70.4167 329.119 70.307 279.088 87.1671 233.465C101.051 195.777 127.17 162.276 160.23 139.464C179.515 126.131 200.783 116.212 223.374 110.042C237.04 106.295 231.198 85.0264 217.534 88.7732C173.895 100.565 134.003 125.689 105.02 160.403C75.1562 196.109 57.083 240.078 53.226 286.472C50.5804 318.21 55.0985 350.608 66.0092 380.583C68.1023 386.202 73.5028 389.949 79.5638 388.297C84.8534 386.753 89.26 380.361 87.1671 374.741Z" fill="#08B4B2"/>
<path d="M319.582 92.2987C319.361 110.483 308.232 127.563 290.819 133.844C272.856 140.346 252.579 134.836 240.568 119.96C229.107 105.634 227.894 85.2459 237.263 69.5984C246.519 54.0602 265.033 45.4651 282.885 48.6595C304.153 52.4064 319.252 70.9199 319.582 92.2983C319.803 106.515 341.843 106.515 341.622 92.2983C341.292 64.4181 324.101 39.9533 298.093 30.0353C272.527 20.3372 241.891 28.6022 224.59 49.6504C206.958 71.1399 203.871 101.995 218.308 126.129C232.745 150.263 260.734 162.274 288.175 157.317C319.251 151.697 341.291 123.265 341.732 92.2987C341.842 78.0843 319.801 78.0843 319.581 92.3005L319.582 92.2987Z" fill="#08B4B2"/>
<path d="M147.117 426.425C146.897 444.609 135.767 461.69 118.354 467.971C100.391 474.472 80.1146 468.962 68.1033 454.086C56.642 439.761 55.4294 419.372 64.7977 403.725C74.0545 388.187 92.5681 379.592 110.42 382.786C131.69 386.533 146.787 405.046 147.118 426.425C147.338 440.641 169.378 440.641 169.158 426.425C168.827 398.545 151.636 374.08 125.628 364.162C100.062 354.464 69.4261 362.729 52.1247 383.777C34.4936 405.266 31.4066 436.122 45.8433 460.256C60.2799 484.389 88.2693 496.401 115.71 491.443C146.786 485.824 168.826 457.391 169.267 426.425C169.377 412.213 147.337 412.213 147.116 426.427L147.117 426.425Z" fill="#08B4B2"/>
<path d="M492.363 426.425C492.143 444.609 481.013 461.69 463.601 467.971C445.638 474.472 425.361 468.962 413.349 454.086C401.888 439.761 400.675 419.372 410.044 403.725C419.301 388.187 437.814 379.592 455.666 382.786C476.935 386.533 492.033 405.046 492.364 426.425C492.584 440.641 514.624 440.641 514.404 426.425C514.074 398.545 496.882 374.08 470.874 364.162C445.308 354.464 414.672 362.729 397.371 383.777C379.74 405.266 376.653 436.122 391.089 460.256C405.526 484.389 433.515 496.401 460.956 491.443C492.033 485.824 514.073 457.391 514.513 426.425C514.623 412.213 492.583 412.213 492.362 426.427L492.363 426.425Z" fill="#08B4B2"/>
<path fill-rule="evenodd" clip-rule="evenodd" d="M236.261 252.833C236.261 252.833 260.51 267.354 268.425 283.886C271.302 283.071 274.325 282.627 277.408 282.627C280.549 282.627 283.628 283.088 286.553 283.933C294.445 267.381 318.739 252.833 318.739 252.833C319.598 262.268 318.795 284.916 309.209 303.86C308.654 302.878 308.119 301.961 307.585 301.082C310.772 294.291 311.703 289.913 311.78 281.564C309.943 289.143 308.87 293.409 305.509 297.865C303.442 294.858 301.038 291.921 297.324 287.79L297.328 287.68C298.563 279.954 300.457 275.301 304.41 266.848C296.682 276.195 292.991 283.778 293.102 290.536L293.038 290.473C293.088 294.301 294.356 297.865 296.8 301.332L297.266 297.698L299.375 299.027C299.113 298.207 298.851 297.524 298.605 296.882C298.338 296.188 298.091 295.542 297.881 294.823C297.909 294.847 297.936 294.87 297.964 294.894C297.957 294.87 297.95 294.847 297.943 294.823C300.973 297.419 303.698 300.384 308.277 305.638L308.216 305.749L308.157 305.689C308.375 306.907 308.489 308.146 308.489 309.399C308.489 311.419 308.193 313.951 307.639 316.807C308.508 317.325 309.363 318.035 309.92 319.15C308.746 319.171 307.936 319.271 307.041 319.59C307.01 319.725 306.978 319.861 306.945 319.997C310.124 323.163 311.565 325.409 313.639 329.611C310.377 326.812 308.315 325.081 305.987 323.65C305.883 324.019 305.775 324.391 305.664 324.765C307.452 328.026 307.798 330.43 306.979 334.575C305.442 333.203 304.336 332.239 303.353 331.704C302.631 333.656 301.843 335.62 300.997 337.563C300.429 338.129 299.973 338.744 299.522 339.351C298.315 340.977 297.145 342.553 293.964 343.018C294.135 347.511 293.172 349.48 292.147 351.574C291.634 352.623 291.105 353.704 290.696 355.148C289.89 356.12 289.066 357.026 288.228 357.853C283.043 360.529 282.773 360.397 277.932 358.03L277.326 357.734C271.898 360.382 271.507 360.523 266.903 358.158C265.802 357.103 264.726 355.911 263.68 354.609C263.298 353.426 262.84 352.488 262.392 351.574C261.368 349.48 260.404 347.511 260.575 343.018C257.394 342.553 256.225 340.977 255.018 339.351C254.715 338.944 254.411 338.534 254.072 338.137C253.14 336.032 252.277 333.898 251.491 331.777C250.501 332.31 249.388 333.279 247.837 334.664C247.016 330.505 247.367 328.099 249.17 324.823C249.06 324.455 248.954 324.089 248.851 323.725C246.515 325.16 244.449 326.892 241.177 329.7C243.255 325.49 244.698 323.244 247.889 320.069C247.858 319.941 247.828 319.814 247.798 319.687C246.894 319.362 246.08 319.26 244.897 319.239C245.456 318.118 246.319 317.405 247.193 316.886C246.629 313.997 246.328 311.438 246.328 309.399C246.328 308.156 246.44 306.925 246.655 305.715C251.275 300.413 254.011 297.432 257.056 294.823C256.847 295.542 256.599 296.188 256.333 296.882C256.086 297.524 255.824 298.207 255.562 299.027L257.671 297.697L258.137 301.332C264.886 291.758 262.667 281.457 250.589 266.848C254.542 275.301 256.437 279.954 257.671 287.68L257.675 287.79C253.961 291.921 251.558 294.858 249.49 297.865C246.13 293.409 245.057 289.143 243.219 281.564C243.297 289.913 244.227 294.291 247.414 301.082C246.88 301.96 246.346 302.878 245.791 303.859C236.205 284.915 235.402 262.268 236.261 252.833ZM268.883 323.405L266.131 318.086L258.405 316.668C258.742 322.3 262.401 324.469 268.883 323.405ZM289.752 318.086L286.999 323.405C293.482 324.469 297.14 322.3 297.478 316.668L289.752 318.086ZM272.463 345.807C271.263 346.656 270.521 347.82 270.521 349.106C270.521 351.701 273.543 353.804 277.27 353.804C280.997 353.804 284.019 351.701 284.019 349.106C284.019 347.753 283.199 346.536 281.885 345.678C280.555 346.214 278.855 346.536 277.004 346.536C275.307 346.536 273.738 346.266 272.463 345.807Z" fill="#08B4B2"/>
</svg>
