<?xml version="1.0" encoding="UTF-8"?>
<svg width="1200pt" height="1200pt" version="1.1" viewBox="0 0 1200 1200" xmlns="http://www.w3.org/2000/svg">
 <g>
  <path d="m421.29 600c-0.46875 68.906-47.695 130.2-114.61 147.19-58.125 14.766-121.17-7.2656-157.73-54.844-36.211-47.109-41.25-113.32-12.539-165.47 28.945-52.266 86.25-82.852 145.78-78.281 67.266 5.1562 123.63 57.07 136.52 122.81 1.875 9.4922 2.5781 18.984 2.5781 28.594 0.11719 15.117 23.555 15.117 23.438 0-0.46875-79.219-55.195-150.7-132.42-169.92-68.672-17.109-141.21 9.4922-183.63 65.742-41.016 54.492-45.234 131.13-11.719 190.43 33.516 59.18 100.9 94.922 168.75 88.242 76.523-7.5 142.15-65.508 156.09-141.8 1.9922-10.781 3.0469-21.68 3.0469-32.578 0-15.234-23.438-15.234-23.555-0.11719z"/>
  <path d="m1082.2 221.48c-0.35156 60.586-37.148 116.95-93.398 140.27-61.172 25.312-132.66 7.2656-175.08-43.125-44.531-52.734-45.938-130.9-6.0938-186.45 35.625-49.688 100.55-72.891 159.61-58.008 59.062 14.766 103.83 64.57 113.44 124.57 1.1719 7.5 1.5234 15.117 1.5234 22.734 0.11719 15.117 23.555 15.117 23.438 0-0.35156-71.25-44.062-135.59-109.92-162.54-65.625-26.953-143.91-9.375-192.42 41.953-53.32 56.367-63.398 144.02-23.203 210.7 39.141 65.156 117.89 97.969 191.84 80.156 67.5-16.172 121.29-74.062 131.48-142.85 1.4062-9.1406 2.1094-18.164 2.2266-27.422 0.11719-15.117-23.32-15.117-23.438 0z"/>
  <path d="m1082.2 978.52c-0.35156 60.586-37.148 116.95-93.398 140.27-57.305 23.789-124.8 9.4922-167.81-35.156-47.227-48.984-55.664-125.62-20.273-183.87 34.102-56.25 102.77-84.609 166.64-68.555 59.062 14.766 103.83 64.57 113.44 124.57 1.0547 7.5 1.4062 15.117 1.4062 22.734 0.11719 15.117 23.555 15.117 23.438 0-0.35156-71.25-44.062-135.59-109.92-162.54-68.906-28.242-151.88-7.3828-199.45 49.805-26.953 32.461-41.953 73.711-41.133 116.02 0.70312 34.805 11.836 69.492 32.109 97.852 41.602 58.008 114.96 85.898 184.57 69.141 67.5-16.172 121.29-74.062 131.48-142.85 1.4062-9.1406 2.1094-18.164 2.2266-27.422 0.23438-15.117-23.203-15.117-23.32 0z"/>
  <path d="m918.63 384.96v42.773 102.66 124.22 107.46 35.625c0 5.5078-0.46875 11.25 0 16.758v0.82031l11.719-11.719c-62.578 0.35156-120.7 34.102-151.99 88.242 5.3906-1.4062 10.664-2.8125 16.055-4.2188-12.422-7.1484-24.961-14.18-37.383-21.328-30.117-17.227-60.234-34.336-90.352-51.562-36.211-20.742-72.539-41.484-108.75-62.109-31.523-18.047-63.047-35.977-94.453-54.023-10.312-5.8594-20.625-11.719-30.938-17.695-4.9219-2.8125-9.7266-6.2109-14.883-8.4375-0.23438-0.11719-0.46875-0.23438-0.70312-0.35156 1.4062 5.3906 2.8125 10.664 4.2188 16.055 31.406-54.844 31.055-123.28-1.1719-177.66-1.4062 5.3906-2.8125 10.664-4.2188 16.055 12.422-7.1484 24.961-14.18 37.383-21.328 30.117-17.227 60.234-34.336 90.352-51.562 36.328-20.742 72.539-41.484 108.87-62.109 31.523-18.047 63.047-35.977 94.453-54.023 10.312-5.8594 20.625-11.719 30.938-17.695 4.9219-2.8125 10.195-5.2734 14.883-8.4375 0.23438-0.11719 0.46875-0.23438 0.70312-0.35156-5.3906-1.4062-10.664-2.8125-16.055-4.2188 30.938 55.195 89.883 89.766 153.05 90.234 15.117 0.11719 15.117-23.32 0-23.438-55.195-0.35156-105.94-30.469-132.89-78.633-3.1641-5.5078-10.664-7.2656-16.055-4.2188-12.422 7.1484-24.961 14.18-37.383 21.328-30.117 17.227-60.234 34.336-90.352 51.562-36.328 20.742-72.539 41.484-108.87 62.109-31.523 18.047-63.047 35.977-94.453 54.023-15.234 8.6719-30.938 16.758-45.703 26.133-0.23438 0.11719-0.46875 0.23437-0.70313 0.35156-5.5078 3.1641-7.3828 10.664-4.2188 16.055 28.008 47.227 28.477 106.29 1.1719 153.98-3.1641 5.5078-1.2891 12.891 4.2188 16.055 12.422 7.1484 24.961 14.18 37.383 21.328 30.117 17.227 60.234 34.336 90.352 51.562 36.211 20.742 72.539 41.484 108.75 62.109 31.523 18.047 63.047 35.977 94.453 54.023 15.234 8.6719 30.234 17.93 45.703 26.133 0.23438 0.11719 0.46875 0.23438 0.70313 0.35156 5.5078 3.1641 12.891 1.2891 16.055-4.2188 27.188-47.109 77.344-76.289 131.72-76.641 6.3281 0 11.719-5.3906 11.719-11.719v-42.773-102.66-124.22-107.46c0-17.344 0.70312-34.922 0-52.383v-0.82031c0.11719-15-23.32-15.117-23.32 0z"/>
 </g>
</svg>
